<?xml version="1.0" encoding="utf-8"?>
<!-- Generator: Adobe Illustrator 19.2.0, SVG Export Plug-In . SVG Version: 6.00 Build 0)  -->
<svg version="1.1" id="Laag_1" xmlns="http://www.w3.org/2000/svg" xmlns:xlink="http://www.w3.org/1999/xlink" x="0px" y="0px"
	 viewBox="0 0 100 100" style="enable-background:new 0 0 100 100;" xml:space="preserve">
<style type="text/css">
	.st0{fill:#FFFFFF;}
	.st1{enable-background:new    ;}
</style>
<path class="st0" d="M90,22v44H10V22H90 M94,18H6v52h88V18L94,18z"/>
<path class="st0" d="M68,78H58v-4H42v4H32c-1.1,0-2,0.9-2,2s0.9,2,2,2h36c1.1,0,2-0.9,2-2S69.1,78,68,78z"/>
<path class="st0" d="M19.4,28.6C19,28.2,18.5,28,18,28s-1,0.2-1.4,0.6c-0.8,0.8-0.8,2,0,2.8L29.2,44H20c-1.1,0-2,0.9-2,2
	c0,1.1,0.9,2,2,2h14c1.1,0,2-0.9,2-2V32c0-1.1-0.9-2-2-2c-1.1,0-2,0.9-2,2v9.2L19.4,28.6z"/>
<path class="st0" d="M66,58c1.1,0,2-0.9,2-2v-9.2l12.6,12.6c0.8,0.8,2,0.8,2.8,0s0.8-2,0-2.8L70.8,44H80c1.1,0,2-0.9,2-2s-0.9-2-2-2
	H66c-1.1,0-2,0.9-2,2v14C64,57.1,64.9,58,66,58z"/>
<text transform="matrix(1 0 0 1 0 115)" style="font-family:'HelveticaNeue-Bold'; font-size:5px;">Created by Jamison Wieser</text>
<text transform="matrix(1 0 0 1 0 120)" style="font-family:'HelveticaNeue-Bold'; font-size:5px;">from the Noun Project</text>
</svg>
