<?xml version="1.0" encoding="utf-8"?>
<!-- Generator: Adobe Illustrator 19.2.0, SVG Export Plug-In . SVG Version: 6.00 Build 0)  -->
<svg version="1.1" id="Laag_1" xmlns="http://www.w3.org/2000/svg" xmlns:xlink="http://www.w3.org/1999/xlink" x="0px" y="0px"
	 viewBox="0 0 100 100" style="enable-background:new 0 0 100 100;" xml:space="preserve">
<style type="text/css">
	.st0{fill:#FFFFFF;}
	.st1{enable-background:new    ;}
</style>
<path class="st0" d="M90,22v44H10V22H90 M94,18H6v52h88V18L94,18z"/>
<path class="st0" d="M68,78H58v-4H42v4H32c-1.1,0-2,0.9-2,2s0.9,2,2,2h36c1.1,0,2-0.9,2-2S69.1,78,68,78z"/>
<path class="st0" d="M32.6,47.4C33,47.8,33.5,48,34,48s1-0.2,1.4-0.6c0.8-0.8,0.8-2,0-2.8L22.8,32H32c1.1,0,2-0.9,2-2s-0.9-2-2-2H18
	c-1.1,0-2,0.9-2,2v14c0,1.1,0.9,2,2,2s2-0.9,2-2v-9.2L32.6,47.4z"/>
<path class="st0" d="M82,42c-1.1,0-2,0.9-2,2v9.2L67.4,40.6c-0.8-0.8-2-0.8-2.8,0s-0.8,2,0,2.8L77.2,56H68c-1.1,0-2,0.9-2,2
	s0.9,2,2,2h14c1.1,0,2-0.9,2-2V44C84,42.9,83.1,42,82,42z"/>
<text transform="matrix(1 0 0 1 0 115)" style="font-family:'HelveticaNeue-Bold'; font-size:5px;">Created by Jamison Wieser</text>
<text transform="matrix(1 0 0 1 0 120)" style="font-family:'HelveticaNeue-Bold'; font-size:5px;">from the Noun Project</text>
</svg>
