<?xml version="1.0" encoding="utf-8"?>
<!-- Generator: Adobe Illustrator 19.2.0, SVG Export Plug-In . SVG Version: 6.00 Build 0)  -->
<svg version="1.1" id="Laag_1" xmlns="http://www.w3.org/2000/svg" xmlns:xlink="http://www.w3.org/1999/xlink" x="0px" y="0px"
	 viewBox="0 0 100 100" style="enable-background:new 0 0 100 100;" xml:space="preserve">
<style type="text/css">
	.st0{fill:#FFFFFF;}
</style>
<g>
	<path class="st0" d="M88.1,67.1c-0.4,0.4-0.8,0.6-1.4,0.6H13.1c-1.1,0-2-0.8-2-2s0.8-2,2-2l73.5,0c1.1,0,2,0.8,2,2
		C88.6,66.3,88.4,66.8,88.1,67.1z"/>
</g>
<g>
	<path class="st0" d="M88.1,51.4c-0.4,0.4-0.8,0.6-1.4,0.6H13.1c-1.1,0-2-0.8-2-2c0-1.1,0.8-2,2-2l73.5,0c1.1,0,2,0.8,2,2
		C88.6,50.6,88.4,51.1,88.1,51.4z"/>
</g>
<g>
	<path class="st0" d="M88.1,35.4c-0.4,0.4-0.8,0.6-1.4,0.6H13.1c-1.1,0-2-0.8-2-2s0.8-2,2-2l73.5,0c1.1,0,2,0.8,2,2
		C88.6,34.6,88.4,35.1,88.1,35.4z"/>
</g>
</svg>
