<?xml version="1.0" encoding="utf-8"?>
<!-- Generator: Adobe Illustrator 19.2.0, SVG Export Plug-In . SVG Version: 6.00 Build 0)  -->
<svg version="1.1" id="Laag_1" xmlns="http://www.w3.org/2000/svg" xmlns:xlink="http://www.w3.org/1999/xlink" x="0px" y="0px"
	 viewBox="0 0 100 100" style="enable-background:new 0 0 100 100;" xml:space="preserve">
<style type="text/css">
	.st0{fill:#FFFFFF;}
	.st1{enable-background:new    ;}
</style>
<g>
	<path class="st0" d="M46.7,81.5c-0.6,0-1.3-0.3-1.8-0.8L26.3,62.1c0,0-0.2-0.1-0.3-0.1l-14,0c-1.7,0-3-1.3-3-3V41c0-1.7,1.3-3,3-3
		h14c0.1,0,0.2-0.1,0.3-0.1l18.6-18.6c0.8-0.8,1.8-1,2.7-0.6C48.5,19,49,19.9,49,21v58c0,1.1-0.5,2-1.4,2.3
		C47.3,81.5,47,81.5,46.7,81.5z M13,58h13c1.1,0,2.4,0.5,3.1,1.3L45,75.2V24.8L29.1,40.7c-0.8,0.8-2,1.3-3.1,1.3H13V58z"/>
	<path class="st0" d="M66.8,71.8c-0.5,0-1-0.2-1.4-0.6c-0.8-0.8-0.8-2,0-2.8C70.3,63.5,73,56.9,73,50s-2.7-13.5-7.6-18.4
		c-0.8-0.8-0.8-2,0-2.8c0.8-0.8,2-0.8,2.8,0C73.9,34.5,77,42,77,50s-3.1,15.5-8.8,21.2C67.8,71.6,67.3,71.8,66.8,71.8z"/>
	<path class="st0" d="M75.3,80.3c-0.5,0-1-0.2-1.4-0.6c-0.8-0.8-0.8-2,0-2.8C81,69.7,85,60.1,85,50c0-10.2-4-19.7-11.1-26.9
		c-0.8-0.8-0.8-2,0-2.8c0.8-0.8,2-0.8,2.8,0C84.6,28.2,89,38.8,89,50c0,11.2-4.4,21.8-12.3,29.7C76.3,80.1,75.8,80.3,75.3,80.3z"/>
	<path class="st0" d="M58.3,63.3c-0.5,0-1-0.2-1.4-0.6c-0.8-0.8-0.8-2,0-2.8c2.6-2.6,4.1-6.2,4.1-9.9s-1.5-7.3-4.1-9.9
		c-0.8-0.8-0.8-2,0-2.8s2-0.8,2.8,0C63.1,40.7,65,45.2,65,50s-1.9,9.3-5.3,12.7C59.3,63.1,58.8,63.3,58.3,63.3z"/>
</g>
<text transform="matrix(1 0 0 1 0 115)" style="font-family:'HelveticaNeue-Bold'; font-size:5px;">Created by Jamison Wieser</text>
<text transform="matrix(1 0 0 1 0 120)" style="font-family:'HelveticaNeue-Bold'; font-size:5px;">from the Noun Project</text>
</svg>
