<?xml version="1.0" encoding="utf-8"?>
<!-- Generator: Adobe Illustrator 19.2.0, SVG Export Plug-In . SVG Version: 6.00 Build 0)  -->
<svg version="1.1" id="Laag_1" xmlns="http://www.w3.org/2000/svg" xmlns:xlink="http://www.w3.org/1999/xlink" x="0px" y="0px"
	 viewBox="0 0 100 100" style="enable-background:new 0 0 100 100;" xml:space="preserve">
<style type="text/css">
	.st0{fill:#FFFFFF;}
	.st1{enable-background:new    ;}
</style>
<path class="st0" d="M92,30H80c-1.1,0-2,0.9-2,2v14.8L44.9,30.2c-0.6-0.3-1.4-0.3-1.9,0.1c-0.6,0.4-0.9,1-0.9,1.7v14.8L8.9,30.2
	c-0.6-0.3-1.4-0.3-1.9,0.1C6.4,30.7,6,31.3,6,32v36c0,0.7,0.4,1.3,0.9,1.7C7.3,69.9,7.6,70,8,70c0.3,0,0.6-0.1,0.9-0.2L42,53.2V68
	c0,0.7,0.4,1.3,0.9,1.7c0.3,0.2,0.7,0.3,1.1,0.3c0.3,0,0.6-0.1,0.9-0.2L78,53.2V68c0,1.1,0.9,2,2,2h12c1.1,0,2-0.9,2-2V32
	C94,30.9,93.1,30,92,30z M10,64.8V35.2L39.5,50L10,64.8z M46,64.8V35.2L75.5,50L46,64.8z M90,66h-8V34h8V66z"/>
<text transform="matrix(1 0 0 1 0 115)" style="font-family:'HelveticaNeue-Bold'; font-size:5px;">Created by Jamison Wieser</text>
<text transform="matrix(1 0 0 1 0 120)" style="font-family:'HelveticaNeue-Bold'; font-size:5px;">from the Noun Project</text>
</svg>
