<?xml version="1.0" encoding="utf-8"?>
<!-- Generator: Adobe Illustrator 19.2.0, SVG Export Plug-In . SVG Version: 6.00 Build 0)  -->
<svg version="1.1" id="Laag_1" xmlns="http://www.w3.org/2000/svg" xmlns:xlink="http://www.w3.org/1999/xlink" x="0px" y="0px"
	 viewBox="0 0 100 100" style="enable-background:new 0 0 100 100;" xml:space="preserve">
<style type="text/css">
	.st0{fill:#FFFFFF;}
</style>
<path class="st0" d="M80,82H60c-1.1,0-2-0.9-2-2V20c0-1.1,0.9-2,2-2h20c1.1,0,2,0.9,2,2v60C82,81.1,81.1,82,80,82z M62,78h16V22H62
	V78z"/>
<path class="st0" d="M39.7,82H20c-1.1,0-2-0.9-2-2V20c0-1.1,0.9-2,2-2h19.7c1.1,0,2,0.9,2,2v60C41.7,81.1,40.8,82,39.7,82z M22,78
	h15.7V22H22V78z"/>
</svg>
