<?xml version="1.0" encoding="utf-8"?>
<!-- Generator: Adobe Illustrator 19.2.0, SVG Export Plug-In . SVG Version: 6.00 Build 0)  -->
<svg version="1.1" id="Laag_1" xmlns="http://www.w3.org/2000/svg" xmlns:xlink="http://www.w3.org/1999/xlink" x="0px" y="0px"
	 viewBox="0 0 100 100" style="enable-background:new 0 0 100 100;" xml:space="preserve">
<style type="text/css">
	.st0{fill:#FFFFFF;}
	.st1{enable-background:new    ;}
</style>
<path class="st0" d="M20,82c-0.4,0-0.7-0.1-1.1-0.3c-0.6-0.4-0.9-1-0.9-1.7V20c0-0.7,0.4-1.3,0.9-1.7c0.6-0.4,1.3-0.4,1.9-0.1l60,30
	c0.7,0.3,1.1,1,1.1,1.8s-0.4,1.5-1.1,1.8l-60,30C20.6,81.9,20.3,82,20,82z M22,23.2v53.5L75.5,50L22,23.2z"/>
<text transform="matrix(1 0 0 1 0 115)" style="font-family:'HelveticaNeue-Bold'; font-size:5px;">Created by Jamison Wieser</text>
<text transform="matrix(1 0 0 1 0 120)" style="font-family:'HelveticaNeue-Bold'; font-size:5px;">from the Noun Project</text>
</svg>
