<?xml version="1.0" encoding="utf-8"?>
<!-- Generator: Adobe Illustrator 19.2.0, SVG Export Plug-In . SVG Version: 6.00 Build 0)  -->
<svg version="1.1" id="Laag_1" xmlns="http://www.w3.org/2000/svg" xmlns:xlink="http://www.w3.org/1999/xlink" x="0px" y="0px"
	 viewBox="0 0 100 100" style="enable-background:new 0 0 100 100;" xml:space="preserve">
<style type="text/css">
	.st0{fill:#FFFFFF;}
	.st1{enable-background:new    ;}
</style>
<g>
	<path class="st0" d="M45,70.5v4.7L29.1,59.3c-0.8-0.8-2-1.3-3.1-1.3H13V42h3.5l-4-4H12c-1.7,0-3,1.3-3,3v18c0,1.7,1.3,3,3,3l14,0
		c0.1,0,0.3,0.1,0.3,0.1l18.6,18.6c0.5,0.5,1.2,0.8,1.8,0.8c0.3,0,0.6-0.1,0.9-0.2C48.5,81,49,80.1,49,79v-4.5L45,70.5z"/>
	<path class="st0" d="M30.7,39.2L45,24.8v28.7l4,4V21c0-1.1-0.5-2-1.4-2.3c-0.9-0.4-1.9-0.1-2.7,0.6l-17,17.1L30.7,39.2z"/>
	<path class="st0" d="M59,78c-0.5,0-1-0.2-1.4-0.6l-52-52c-0.8-0.8-0.8-2,0-2.8c0.8-0.8,2-0.8,2.8,0l52,52c0.8,0.8,0.8,2,0,2.8
		C60,77.8,59.5,78,59,78z"/>
</g>
<text transform="matrix(1 0 0 1 0 115)" style="font-family:'HelveticaNeue-Bold'; font-size:5px;">Created by Jamison Wieser</text>
<text transform="matrix(1 0 0 1 0 120)" style="font-family:'HelveticaNeue-Bold'; font-size:5px;">from the Noun Project</text>
</svg>
